<svg width="10" height="10" viewBox="0 0 10 10" fill="none" xmlns="http://www.w3.org/2000/svg">
<path fill-rule="evenodd" clip-rule="evenodd" d="M6.125 0.875H2C1.5875 0.875 1.25 1.2125 1.25 1.625V6.5C1.25 6.70625 1.41875 6.875 1.625 6.875C1.83125 6.875 2 6.70625 2 6.5V2C2 1.79375 2.16875 1.625 2.375 1.625H6.125C6.33125 1.625 6.5 1.45625 6.5 1.25C6.5 1.04375 6.33125 0.875 6.125 0.875ZM6.34634 2.59625L8.15759 4.4075C8.29634 4.54625 8.37509 4.7375 8.37509 4.93625V8.375C8.37509 8.7875 8.03759 9.125 7.62509 9.125H3.49634C3.08384 9.125 2.75009 8.7875 2.75009 8.375L2.75384 3.125C2.75384 2.7125 3.08759 2.375 3.50009 2.375H5.81384C6.01259 2.375 6.20384 2.45375 6.34634 2.59625ZM6.125 5H7.8125L5.75 2.9375V4.625C5.75 4.83125 5.91875 5 6.125 5Z" fill="#E8A239"/>
</svg>
