<svg width="8" height="10" viewBox="0 0 8 10" fill="none" xmlns="http://www.w3.org/2000/svg">
<path d="M7.44618 0.785838H5.22646C5.21056 0.625426 5.07518 0.5 4.91047 0.5H3.08941C2.92469 0.5 2.78934 0.625426 2.77344 0.785838H0.553715C0.378275 0.785838 0.236084 0.928029 0.236084 1.10351V1.70699C0.236084 1.88249 0.378275 2.02463 0.553715 2.02463H7.4462C7.62164 2.02463 7.76383 1.88247 7.76383 1.70699V1.10353C7.76381 0.928029 7.62162 0.785838 7.44618 0.785838Z" fill="#FF6A6A"/>
<path d="M0.9021 2.63485V9.18241C0.9021 9.35773 1.04429 9.50004 1.21973 9.50004H6.78046C6.95596 9.50004 7.09803 9.35778 7.09803 9.18241V2.63485H0.9021ZM3.2276 7.54916C3.2276 7.74253 3.0708 7.89936 2.87745 7.89936C2.68399 7.89936 2.5273 7.74254 2.5273 7.54916V4.07758C2.5273 3.88422 2.68399 3.72744 2.87745 3.72744C3.0708 3.72744 3.2276 3.88423 3.2276 4.07758V7.54916ZM5.47296 7.54916C5.47296 7.74253 5.31617 7.89936 5.12276 7.89936C4.92934 7.89936 4.77261 7.74254 4.77261 7.54916V4.07758C4.77261 3.88422 4.92936 3.72744 5.12276 3.72744C5.31615 3.72744 5.47296 3.88423 5.47296 4.07758V7.54916Z" fill="#FF6A6A"/>
</svg>
