<svg width="20" height="20" viewBox="0 0 20 20" fill="none" xmlns="http://www.w3.org/2000/svg">
<path d="M10 0C4.36792 0 0 3.66625 0 6.82042V12.8071C0 15.815 4.10667 19.1667 10 19.1667C15.8933 19.1667 20 15.815 20 12.8071V6.82042C20 3.66625 15.6321 0 10 0ZM4.58333 16.2492C2.72958 15.2704 1.66667 13.8992 1.66667 12.8071V10.3408C1.67917 10.3538 1.69458 10.3663 1.70708 10.3792C1.87958 10.5575 2.06167 10.7329 2.25792 10.9033C2.94333 11.4987 3.72708 12.0025 4.58333 12.4154V16.2492ZM9.16708 17.4746H9.16667C8.09542 17.4092 7.12125 17.2154 6.25 16.94V13.0958C6.25667 13.0979 6.26333 13.1 6.27 13.1025C6.34042 13.1262 6.41083 13.1487 6.48083 13.1712C6.6075 13.2117 6.73375 13.25 6.85958 13.2858C6.92792 13.3054 6.99667 13.3254 7.06458 13.3438C7.20167 13.3808 7.33792 13.4142 7.47375 13.4462C7.5275 13.4587 7.58125 13.4729 7.63458 13.4846C7.82167 13.5258 8.00792 13.5629 8.19292 13.5942C8.22958 13.6004 8.26583 13.6046 8.3025 13.6104C8.45167 13.6342 8.60042 13.6558 8.74875 13.6733C8.81375 13.6813 8.87875 13.6867 8.94375 13.6933C9.01792 13.7008 9.09292 13.7104 9.16708 13.7162V17.4746ZM13.75 16.94C12.8787 17.2154 11.9046 17.4092 10.8333 17.4746V13.7162C10.9071 13.7104 10.9812 13.7008 11.055 13.6933C11.1208 13.6867 11.1862 13.6808 11.2521 13.6729C11.3987 13.6554 11.5458 13.6342 11.6933 13.6108C11.7312 13.6046 11.7692 13.6004 11.8071 13.5938C11.9917 13.5625 12.1775 13.5254 12.3637 13.4846C12.4187 13.4725 12.4742 13.4579 12.5296 13.445C12.6633 13.4133 12.7979 13.3804 12.9329 13.3442C13.0021 13.3254 13.0721 13.305 13.1417 13.285C13.2662 13.2492 13.3908 13.2112 13.5167 13.1712C13.5875 13.1487 13.6583 13.1258 13.7296 13.1021C13.7362 13.1 13.7433 13.0979 13.75 13.0954V16.94ZM14.2571 11.1192C14.2567 11.1192 14.2563 11.1196 14.2558 11.1196C12.7396 11.7683 11.3475 12.0833 10 12.0833C8.6525 12.0833 7.26042 11.7683 5.74208 11.1187C5.74167 11.1187 5.74125 11.1183 5.74083 11.1179C4.85417 10.7425 4.02792 10.2329 3.35125 9.64458C2.29625 8.72917 1.66667 7.67333 1.66667 6.82042C1.66667 4.745 5.16583 1.66667 10 1.66667C14.8342 1.66667 18.3333 4.745 18.3333 6.82042C18.3333 7.67333 17.7037 8.72917 16.6492 9.645C15.9733 10.2325 15.1479 10.7413 14.26 11.1179C14.2592 11.1183 14.2579 11.1187 14.2571 11.1192ZM18.3333 12.8071C18.3333 13.8992 17.2704 15.2708 15.4167 16.2492V12.4154C16.2738 12.0017 17.0571 11.4983 17.7421 10.9033C17.9383 10.7329 18.1208 10.5571 18.2937 10.3783C18.3062 10.3654 18.3208 10.3533 18.3333 10.3408V12.8071Z" fill="#683AB6"/>
<path d="M8.41669 3.5C8.04794 3.22416 7.52586 3.29958 7.25002 3.66666L4.75002 7C4.47377 7.36833 4.54836 7.89083 4.91627 8.16666C5.06627 8.27916 5.24169 8.33333 5.41544 8.33333C5.66877 8.33333 5.91919 8.21833 6.08294 8L8.58294 4.66666C8.85961 4.29833 8.78502 3.77625 8.41669 3.5Z" fill="#683AB6"/>
<path d="M10.9167 4.75005C10.5475 4.4738 10.0259 4.54922 9.75002 4.91672L7.25002 8.25005C6.97377 8.61839 7.04836 9.14089 7.41627 9.41672C7.56627 9.52922 7.74169 9.58339 7.91544 9.58339C8.16877 9.58339 8.41919 9.46839 8.58294 9.25005L11.0829 5.91672C11.3596 5.54839 11.285 5.0263 10.9167 4.75005Z" fill="#683AB6"/>
</svg>
