<svg width="16" height="16" viewBox="0 0 16 16" fill="none" xmlns="http://www.w3.org/2000/svg">
<rect width="16" height="16" rx="4" fill="#1A9326"/>
<g clip-path="url(#clip0)">
<path d="M12.9437 6.25623L11.3812 4.06875C11.3187 3.9875 11.225 3.9375 11.125 3.9375H4.87503C4.77503 3.9375 4.68129 3.9875 4.61879 4.06875L3.0563 6.25623C3.03755 6.31248 3.0188 6.36873 3.00005 6.42498C2.9938 7.11872 3.5563 7.68746 4.25004 7.68746C4.62504 7.68746 4.95628 7.52497 5.18753 7.26247C5.41878 7.52497 5.75002 7.68746 6.12502 7.68746C6.50002 7.68746 6.83126 7.52497 7.06251 7.26247C7.29376 7.52497 7.62501 7.68746 8 7.68746C8.375 7.68746 8.70625 7.52497 8.93749 7.26247C9.16874 7.52497 9.49999 7.68746 9.87498 7.68746C10.25 7.68746 10.5812 7.52497 10.8125 7.26247C11.0437 7.52497 11.375 7.68746 11.75 7.68746C12.4437 7.68746 13.0062 7.11872 13 6.42498C12.9812 6.36873 12.9625 6.31248 12.9437 6.25623Z" fill="white"/>
<path d="M11.75 8.31256C11.4181 8.31256 11.095 8.22381 10.8125 8.06006C10.2475 8.38693 9.5025 8.38693 8.93751 8.06006C8.37251 8.38693 7.6269 8.38693 7.06253 8.06006C6.49816 8.38693 5.75192 8.38693 5.18755 8.06006C4.71818 8.33256 4.13693 8.36756 3.62506 8.19068V11.4375C3.62506 11.7825 3.90506 12.0625 4.25005 12.0625H9.25001V8.93755H11.125V12.0625H11.75C12.095 12.0625 12.375 11.7825 12.375 11.4375V8.19818C12.1762 8.26881 11.9669 8.31256 11.75 8.31256ZM7.37502 10.8125H4.87505V8.93755H7.37502V10.8125Z" fill="white"/>
</g>
<defs>
<clipPath id="clip0">
<rect width="10" height="10" fill="white" transform="translate(3 3)"/>
</clipPath>
</defs>
</svg>
