<svg width="22" height="22" viewBox="0 0 22 22" fill="none" xmlns="http://www.w3.org/2000/svg">
<path fill-rule="evenodd" clip-rule="evenodd" d="M20.524 8.75296C19.8849 4.81957 16.5439 1.89333 12.5606 1.77814C12.3712 1.77071 12.1867 1.8389 12.0476 1.96767C11.9085 2.09645 11.8264 2.27523 11.8192 2.46464V2.46464V2.52871L12.2677 9.23809C12.2971 9.68974 12.6854 10.0331 13.1373 10.007L19.865 9.55846C20.0545 9.54444 20.2307 9.4554 20.3544 9.31108C20.4781 9.16676 20.5392 8.97906 20.524 8.78958V8.75296Z" stroke="#733FCC" stroke-width="2" stroke-linecap="round" stroke-linejoin="round"/>
<path d="M7.90163 5.76901C8.32959 5.67002 8.76753 5.88899 8.94511 6.29075C8.99163 6.38525 9.01959 6.48778 9.02749 6.59281C9.11902 7.89258 9.31124 10.7393 9.42108 12.277C9.43984 12.554 9.56821 12.8121 9.77779 12.9942C9.98737 13.1763 10.2609 13.2674 10.5378 13.2473V13.2473L16.1854 12.8994C16.4375 12.8843 16.6847 12.974 16.8684 13.1473C17.0522 13.3207 17.1561 13.5622 17.1556 13.8148V13.8148C16.9268 17.2252 14.4765 20.0762 11.1393 20.8152C7.80214 21.5542 4.3773 20.0042 2.73001 17.0093C2.23826 16.1473 1.92684 15.1944 1.81467 14.2084C1.76672 13.9058 1.74833 13.5992 1.75975 13.293C1.76947 9.65104 4.32726 6.51297 7.89248 5.76901" stroke="#733FCC" stroke-width="2" stroke-linecap="round" stroke-linejoin="round"/>
</svg>
