<svg width="160" height="69" viewBox="0 0 160 69" fill="none" xmlns="http://www.w3.org/2000/svg">
<g clip-path="url(#clip0)">
<path d="M67.0965 31.4399C66.9052 30.9717 65.0983 26.7154 60.6129 22.1683C58.6572 20.182 55.9575 17.9262 52.4145 15.9115L51.0965 13.8046C50.558 12.9392 45.5908 5.24235 37.1373 1.21305L34.5934 0L31.9221 0.9222C31.1497 1.19177 27.0682 2.74532 22.5686 7.12222C20.4783 9.15816 18.0549 12.0666 15.9079 16.0534L13.6758 17.3161C12.9956 17.6992 6.86625 21.3454 1.64393 30.617L0 33.5255L1.26129 36.6184C1.45261 37.0866 3.25952 41.3429 7.73782 45.8901C9.71479 47.8906 12.4358 50.1677 16.0213 52.1965L17.2117 54.1544C17.7431 55.0341 22.6608 62.8444 31.2772 66.8453L34.2817 68.2428L37.2507 66.7673C37.7821 66.5048 46.8379 61.8938 52.6554 51.8915L54.6891 50.7423C55.3694 50.3592 61.4987 46.713 66.7281 37.4413L68.3649 34.5328L67.0965 31.4399Z" fill="#1B0B3A"/>
<path d="M38.5757 44.6558L45.2648 37.718V28.7655L28.4853 17.8623C28.4853 17.8623 33.7856 12.3291 45.7679 16.8053C45.697 16.6989 41.41 9.77531 34.1895 6.33479C34.1895 6.33479 20.8963 10.9387 17.1833 31.22C17.1833 31.22 24.5172 17.3444 29.8884 23.7998L29.9025 23.8211L23.1 30.5177L23.1567 39.4772L27.8618 42.5347L39.7874 50.2812C39.7874 50.2812 34.4871 56.3393 22.5969 51.4375C22.6607 51.5439 26.969 58.5597 34.1753 61.908C34.1753 61.908 49.4738 54.3105 51.1815 37.0228C51.1886 37.0228 44.2799 51.0048 38.5757 44.6558ZM33.821 38.8601L32.8715 38.3068L30.2497 36.7887C30.2072 36.7674 30.1718 36.739 30.1364 36.7036C30.1222 36.6965 30.1151 36.6823 30.1009 36.6681C30.0655 36.6326 30.0372 36.5971 30.0159 36.5617C30.0017 36.5404 29.9876 36.512 29.9734 36.4836C29.945 36.4269 29.9238 36.363 29.9096 36.2921C29.9025 36.2495 29.8954 36.207 29.8954 36.1715V32.0358C29.8954 31.9861 29.9025 31.9436 29.9096 31.8939C29.9521 31.6953 30.0726 31.525 30.2497 31.4186L30.3348 31.369L30.3773 31.3477L31.8441 30.5035L33.821 29.3614C33.9344 29.2976 34.0549 29.2692 34.1753 29.2692C34.2958 29.2692 34.4163 29.2976 34.5296 29.3614L38.1009 31.4257C38.3206 31.5534 38.4552 31.7875 38.4552 32.0358V36.1644C38.4552 36.4198 38.3206 36.6468 38.1009 36.7745L38.0159 36.8241L36.5066 37.6967L34.5296 38.8459C34.4163 38.9097 34.2958 38.9381 34.1753 38.9381C34.0549 38.9523 33.9344 38.9239 33.821 38.8601ZM16.2763 22.9486C16.2763 22.9486 11.0611 25.8996 6.4198 34.1214C6.4198 34.1214 12.0814 48.0395 31.2701 51.1466C30.9938 51.0189 10.2108 42.1162 16.2763 22.9486ZM37.0806 17.1316C37.364 17.2522 58.147 26.155 52.0814 45.3297C52.0814 45.3297 57.2967 42.3786 61.938 34.1569C61.9309 34.1498 56.2692 20.2387 37.0806 17.1316Z" fill="url(#paint0_radial)"/>
<path d="M38.4553 32.0571V36.1857C38.4553 36.4411 38.3207 36.6681 38.101 36.7958L38.016 36.8454L36.5067 37.718L34.5297 38.8672C34.4163 38.931 34.2959 38.9594 34.1754 38.9594C34.0549 38.9594 33.9345 38.931 33.8211 38.8672L32.8716 38.3138L30.2498 36.7958C30.2073 36.7745 30.1719 36.7461 30.1364 36.7106C30.1223 36.7035 30.1152 36.6894 30.101 36.6752C30.0656 36.6397 30.0372 36.6042 30.016 36.5688C30.0018 36.5475 29.9876 36.5191 29.9735 36.4907C29.9451 36.434 29.9239 36.3701 29.9097 36.2992C29.9026 36.2566 29.8955 36.2141 29.8955 36.1786V32.0429C29.8955 31.9932 29.9026 31.9507 29.9097 31.901C29.9522 31.7024 30.0727 31.5321 30.2498 31.4257L30.3348 31.3761L30.3774 31.3548L31.8441 30.5106L33.8211 29.3685C33.9345 29.3047 34.0549 29.2763 34.1754 29.2763C34.2959 29.2763 34.4163 29.3047 34.5297 29.3685L38.101 31.4328C38.3278 31.5676 38.4553 31.8017 38.4553 32.0571Z" fill="white"/>
<path d="M30.2498 36.7958C30.2073 36.7745 30.1718 36.7461 30.1364 36.7177C30.1222 36.7035 30.1152 36.6964 30.101 36.6823C30.0656 36.6468 30.0372 36.6113 30.016 36.5759C30.0018 36.5475 29.9876 36.5262 29.9734 36.4978C29.9451 36.4411 29.9238 36.3772 29.9097 36.3063C29.9026 36.2637 29.8955 36.2212 29.8955 36.1786V32.05C29.8955 32.0003 29.9026 31.9578 29.9097 31.9152C29.9451 31.7166 30.0726 31.5463 30.2498 31.4399L30.3348 31.3903L30.3773 31.369C31.2914 27.3397 30.7458 25.1051 29.9026 23.8211L23.1001 30.5177L23.1568 39.4772L27.8618 42.5347L32.8645 38.3138L30.2498 36.7958Z" fill="url(#paint1_linear)"/>
<path d="M40.5243 25.6868L35.4933 29.936L38.1151 31.4541C38.1576 31.4754 38.193 31.5038 38.2284 31.5321C38.2426 31.5463 38.2497 31.5534 38.2639 31.5676C38.2993 31.6031 38.3277 31.6385 38.3489 31.674C38.3631 31.7024 38.3773 31.7237 38.3914 31.752C38.4198 31.8088 38.441 31.8726 38.4552 31.9436C38.4623 31.9861 38.4694 32.0287 38.4694 32.0713V36.1999C38.4694 36.2495 38.4623 36.2921 38.4552 36.3347C38.4198 36.5333 38.2922 36.7035 38.1151 36.81L38.03 36.8596L37.9875 36.8809C37.0734 40.9102 37.7395 43.3718 38.5827 44.6628L45.2648 37.7322L45.2719 28.7726L40.5243 25.6868Z" fill="url(#paint2_radial)"/>
<path opacity="0.17" d="M41.1762 30.7447V37.5052C41.1762 37.9166 40.9566 38.2997 40.6023 38.5054L40.4605 38.5834L37.9946 40.0093L34.7564 41.8821C34.5721 41.9814 34.3737 42.0381 34.1753 42.0381V42.031C33.9769 42.031 33.7785 41.9814 33.5943 41.8821L32.0354 40.9811L27.7484 38.5054C27.6775 38.4699 27.6209 38.4203 27.5642 38.3706C27.5429 38.3564 27.5287 38.3351 27.5075 38.3139C27.4508 38.2571 27.4083 38.2004 27.3658 38.1436C27.3445 38.1081 27.3162 38.0585 27.2949 38.0159C27.2453 37.9166 27.2099 37.8173 27.1957 37.7109C27.1815 37.647 27.1744 37.5761 27.1744 37.5052V30.7447C27.1744 30.6667 27.1815 30.5887 27.1957 30.5177C27.2595 30.1985 27.465 29.9147 27.7555 29.7445L27.8972 29.6665L27.9681 29.631L30.3702 28.2477L33.6085 26.3749C33.7927 26.2685 33.9911 26.2188 34.1895 26.2188V26.2259C34.3879 26.2259 34.5863 26.2756 34.7705 26.3749L40.6164 29.7587C40.9566 29.9502 41.1762 30.3262 41.1762 30.7447Z" fill="white"/>
<path opacity="0.84" d="M34.1754 45.3297C40.3586 45.3297 45.3711 40.3115 45.3711 34.1214C45.3711 27.9312 40.3586 22.9131 34.1754 22.9131C27.9921 22.9131 22.9796 27.9312 22.9796 34.1214C22.9796 40.3115 27.9921 45.3297 34.1754 45.3297Z" fill="url(#paint3_radial)"/>
<path d="M79.4685 36.8667V47.1315H76.1807V21.6504H84.2657C87.178 21.6504 89.3534 22.3314 90.7989 23.6934C92.2444 25.0555 92.9672 26.9141 92.9672 29.2763C92.9672 31.6598 92.2232 33.5255 90.728 34.8592C89.2329 36.1928 87.0788 36.8667 84.2657 36.8667H79.4685ZM88.2905 32.8587C89.1691 32.0145 89.6085 30.8228 89.6085 29.2834C89.6085 27.6944 89.1691 26.4813 88.2905 25.6514C87.4118 24.8214 85.9734 24.4028 83.9752 24.4028H79.4614V34.1214H83.9752C85.9805 34.1214 87.4118 33.7029 88.2905 32.8587Z" fill="white"/>
<path d="M114.119 27.29V47.1315H110.831V42.4709C110.328 44.0883 109.428 45.3226 108.138 46.1739C106.849 47.0322 105.353 47.4579 103.646 47.4579C101.357 47.4579 99.5076 46.7201 98.0833 45.2375C96.6661 43.7549 95.9504 41.6267 95.9504 38.8601V27.2971H99.2383V38.5338C99.2383 40.5059 99.7414 42.0311 100.755 43.1022C101.768 44.1734 103.136 44.7125 104.872 44.7125C106.679 44.7125 108.117 44.1308 109.201 42.9603C110.285 41.7899 110.824 40.0873 110.824 37.8457V27.29H114.119Z" fill="white"/>
<path d="M125.237 28.1058C126.491 27.3468 127.979 26.9708 129.715 26.9708V30.5461H128.702C126.845 30.5461 125.336 31.0214 124.152 31.972C122.976 32.9225 122.381 34.4974 122.381 36.6894V47.1315H119.093V27.29H122.381V31.2981C123.04 29.9289 123.989 28.8649 125.237 28.1058Z" fill="white"/>
<path d="M148.301 28.269C149.676 29.0848 150.753 30.2694 151.532 31.8088C152.312 33.3482 152.709 35.1571 152.709 37.2285C152.709 39.2999 152.319 41.1017 151.532 42.634C150.753 44.1663 149.676 45.3368 148.301 46.1597C146.926 46.9755 145.368 47.3869 143.61 47.3869C141.683 47.3869 140.053 46.8974 138.721 45.9256C137.389 44.9466 136.468 43.6697 135.957 42.0736V56.5309H132.67V27.29H135.957V32.3479C136.461 30.7589 137.382 29.4749 138.721 28.496C140.053 27.517 141.69 27.0347 143.61 27.0347C145.368 27.0347 146.934 27.4461 148.301 28.269ZM139.21 30.8511C138.175 31.4399 137.368 32.2912 136.794 33.3978C136.213 34.5045 135.929 35.7814 135.929 37.2285C135.929 38.6757 136.22 39.9455 136.794 41.0379C137.375 42.1375 138.175 42.9816 139.21 43.5846C140.244 44.1876 141.399 44.4855 142.675 44.4855C144.723 44.4855 146.352 43.84 147.564 42.5489C148.776 41.2578 149.385 39.4844 149.385 37.2214C149.385 34.9585 148.776 33.1779 147.564 31.8939C146.345 30.6029 144.716 29.9573 142.675 29.9573C141.399 29.9644 140.244 30.2624 139.21 30.8511Z" fill="white"/>
<path d="M160 20.3877V47.1315H156.712V20.3877H160Z" fill="white"/>
</g>
<defs>
<radialGradient id="paint0_radial" cx="0" cy="0" r="1" gradientUnits="userSpaceOnUse" gradientTransform="translate(34.1787 34.1204) scale(27.7556 27.7867)">
<stop offset="0.1154" stop-color="#A076EB"/>
<stop offset="1" stop-color="#6D2BD9"/>
</radialGradient>
<linearGradient id="paint1_linear" x1="27.9857" y1="42.5361" x2="27.9857" y2="23.8182" gradientUnits="userSpaceOnUse">
<stop offset="0.1154" stop-color="#3E2A93" stop-opacity="0"/>
<stop offset="1" stop-color="#3E2A93"/>
</linearGradient>
<radialGradient id="paint2_radial" cx="0" cy="0" r="1" gradientUnits="userSpaceOnUse" gradientTransform="translate(40.3749 35.1713) scale(7.54015 7.54858)">
<stop stop-color="#3E2A93"/>
<stop offset="0.8846" stop-color="#3E2A93" stop-opacity="0"/>
</radialGradient>
<radialGradient id="paint3_radial" cx="0" cy="0" r="1" gradientUnits="userSpaceOnUse" gradientTransform="translate(34.1758 34.1204) rotate(180) scale(11.193 11.2055)">
<stop stop-color="white"/>
<stop offset="0.8846" stop-color="white" stop-opacity="0"/>
</radialGradient>
<clipPath id="clip0">
<rect width="160" height="68.2428" fill="white"/>
</clipPath>
</defs>
</svg>
