<svg width="32" height="32" viewBox="0 0 32 32" fill="none" xmlns="http://www.w3.org/2000/svg">
<rect width="32" height="32" rx="6" fill="#FFAF36"/>
<g clip-path="url(#clip0)">
<path d="M18.5453 14.0804L20.2667 11.6309C18.8622 9.5597 16.489 8.19629 13.8037 8.19629C9.50078 8.19629 6 11.6971 6 16C6 20.3029 9.50079 23.8037 13.8037 23.8037C16.4616 23.8037 18.8132 22.4681 20.2228 20.4329L20.5581 15.0055H19.0259C18.5502 15.0055 18.2724 14.4686 18.5453 14.0804ZM14.6607 19.6649C14.6607 19.6649 14.6696 19.6645 14.3912 19.6645V20.5701C14.3912 20.8944 14.1284 21.1575 13.8036 21.1575C13.4793 21.1575 13.2162 20.8943 13.2162 20.5701V19.6645H12.8511C12.1242 19.6594 11.434 19.3281 10.957 18.7554C10.7494 18.5063 10.7831 18.1358 11.0326 17.9282C11.2719 17.7288 11.6232 17.752 11.8344 17.9748C11.843 17.9838 11.8516 17.9936 11.8598 18.0034C12.1144 18.3093 12.4783 18.4863 12.8582 18.4895H14.6489C14.6529 18.4899 14.6568 18.4899 14.6607 18.4899C15.1858 18.4899 15.6117 18.0646 15.6117 17.5385C15.6117 17.0141 15.1847 16.5875 14.6603 16.5875C14.2747 16.5875 13.3575 16.5875 12.9471 16.5875C11.7749 16.5875 10.8211 15.6338 10.8211 14.4615C10.8211 13.2808 11.7787 12.329 12.9605 12.3355H13.2162V11.43C13.2162 11.1057 13.4795 10.8424 13.8037 10.8424C14.1284 10.8424 14.3913 11.1057 14.3913 11.43V12.3355H14.6071C15.4476 12.3414 16.2247 12.775 16.6853 13.4953L16.6943 13.5093C16.869 13.7828 16.7887 14.1458 16.5153 14.3205C16.2521 14.4884 15.8846 14.4292 15.6952 14.1278C15.4539 13.751 15.0344 13.5141 14.6001 13.5105H12.9586C12.9547 13.5105 12.9507 13.5101 12.9472 13.5101C12.4216 13.5101 11.9962 13.9354 11.9962 14.4615C11.9962 14.9859 12.4227 15.4125 12.9472 15.4125H14.6604C15.8327 15.4125 16.7868 16.3662 16.7868 17.5385C16.7867 18.7096 15.8391 19.6649 14.6607 19.6649Z" fill="white"/>
<path d="M24.9734 13.8305C24.6362 13.8305 24.3666 14.1154 24.3871 14.4545L24.8617 22.1373C24.8826 22.4754 24.614 22.7611 24.2753 22.7611H21.8815C21.5427 22.7611 21.2741 22.4751 21.2949 22.1369C21.5107 18.6394 21.2226 23.3124 21.7695 14.4544C21.7901 14.1151 21.5206 13.8305 21.1832 13.8305H20.157C20.3822 13.51 22.3397 10.7245 22.9182 9.90137C22.9963 9.79023 23.1608 9.79043 23.2389 9.90157L26 13.8305H24.9734Z" fill="white"/>
</g>
<defs>
<clipPath id="clip0">
<rect width="20" height="20" fill="white" transform="translate(6 6)"/>
</clipPath>
</defs>
</svg>
