<svg width="24" height="24" viewBox="0 0 24 24" fill="none" xmlns="http://www.w3.org/2000/svg">
<path d="M23.0014 11.9145V15.7388C22.956 16.8791 21.3276 16.8782 21.2826 15.7388V14.0411L18.5475 16.7762C18.3863 16.9374 18.1677 17.0279 17.9398 17.0279H13.6031L7.88191 22.7491C7.54631 23.0848 7.00213 23.0848 6.66653 22.7491C6.33089 22.4135 6.33089 21.8693 6.66653 21.5337L12.6394 15.5609C12.8006 15.3997 13.0192 15.3091 13.2471 15.3091H17.5838L20.119 12.7739H18.2747C17.1344 12.7285 17.1353 11.1 18.2747 11.0551H22.142C22.6166 11.0551 23.0014 11.4398 23.0014 11.9145ZM22.142 18.3171C21.6673 18.3171 21.2826 18.7018 21.2826 19.1765V22.1414C21.328 23.2817 22.9564 23.2808 23.0014 22.1414V19.1765C23.0014 18.7018 22.6166 18.3171 22.142 18.3171ZM18.7044 18.3171C18.2297 18.3171 17.845 18.7018 17.845 19.1765V22.1414C17.8903 23.2817 19.5188 23.2808 19.5638 22.1414V19.1765C19.5638 18.7018 19.179 18.3171 18.7044 18.3171ZM15.2667 18.3171C14.7921 18.3171 14.4073 18.7018 14.4073 19.1765V22.1414C14.4527 23.2817 16.0811 23.2808 16.1261 22.1414V19.1765C16.1261 18.7018 15.7414 18.3171 15.2667 18.3171ZM11.8291 20.9383C11.3544 20.9383 10.9697 21.323 10.9697 21.7977V22.1414C11.0151 23.2817 12.6435 23.2808 12.6885 22.1414V21.7977C12.6885 21.323 12.3037 20.9383 11.8291 20.9383ZM10.0673 15.567C10.542 15.567 10.9267 15.1822 10.9267 14.7075V14.1797C13.6208 13.1824 12.9702 9.21931 10.0673 9.16435C8.92459 9.11773 8.93013 7.49886 10.0673 7.45168C10.4124 7.45168 10.6878 7.63447 10.8231 7.95327C11.0086 8.39015 11.5132 8.59392 11.9501 8.4085C12.387 8.22304 12.5908 7.71848 12.4053 7.28156C12.1176 6.60387 11.5831 6.10829 10.9267 5.8775V5.29697C10.8813 4.1567 9.25288 4.15756 9.20789 5.29697V5.88008C6.51768 6.87729 7.15927 10.828 10.0673 10.8831C11.2036 10.9302 11.2108 12.5608 10.0673 12.6081C9.73307 12.6081 9.4016 12.39 9.26126 12.0778C9.06669 11.6448 8.55796 11.4516 8.12508 11.6462C7.69215 11.8408 7.49891 12.3495 7.69353 12.7824C7.98684 13.435 8.54898 13.9363 9.20789 14.1744V14.7075C9.20789 15.1822 9.59265 15.567 10.0673 15.567ZM7.10217 18.5094C7.44773 18.5094 7.77366 18.2994 7.90477 17.9574C8.07472 17.5142 7.85316 17.0172 7.40996 16.8473C-0.0726118 13.8258 1.93699 2.85332 10.0245 2.71878C13.5811 2.71878 16.6071 5.25696 17.2195 8.75398C17.3014 9.22146 17.7468 9.53411 18.2143 9.45225C18.6818 9.3704 18.9945 8.92501 18.9126 8.45749C18.5508 6.3919 17.4664 4.50335 15.8589 3.13976C10.0655 -1.81198 0.974621 2.3938 1.00058 10.0238C0.957261 13.692 3.36434 17.1779 6.79467 18.4522C6.89591 18.491 6.99985 18.5094 7.10217 18.5094Z" fill="white"/>
</svg>
