<svg width="32" height="32" viewBox="0 0 32 32" fill="none" xmlns="http://www.w3.org/2000/svg">
<rect width="32" height="32" rx="6" fill="#FF8947"/>
<g clip-path="url(#clip0)">
<path d="M9.96585 15.7058H9.96193C9.47565 15.7058 9.0784 16.0831 9.05252 16.5666V22.3627C9.05252 22.7054 8.97016 23.0301 8.82428 23.3184H10.8768V16.6172C10.8768 16.1144 10.4682 15.7058 9.96585 15.7058Z" fill="white"/>
<path d="M22.5808 14.5294V6.58824C22.5808 6.26337 22.3174 6 21.9925 6H6.58824C6.26337 6 6 6.26337 6 6.58824V22.3627C6 22.8847 6.42039 23.3102 6.94039 23.318C7.45686 23.3071 7.87608 22.8808 7.87608 22.3627V16.5529C7.87608 16.5447 7.87608 16.5365 7.87647 16.5282C7.92353 15.4075 8.83961 14.5294 9.96196 14.5294H22.5808Z" fill="white"/>
<path d="M9.24921 8.26392H10.36C10.8662 8.26392 11.2333 8.33634 11.4611 8.4812C11.6906 8.62443 11.8054 8.85311 11.8054 9.16724C11.8054 9.38045 11.7549 9.55542 11.654 9.69214C11.5547 9.82886 11.4221 9.91105 11.256 9.93872V9.96313C11.4823 10.0136 11.645 10.108 11.7443 10.2463C11.8452 10.3847 11.8957 10.5686 11.8957 10.7981C11.8957 11.1236 11.7777 11.3775 11.5417 11.5598C11.3073 11.7421 10.9883 11.8333 10.5847 11.8333H9.24921V8.26392ZM10.006 9.67749H10.4455C10.6506 9.67749 10.7987 9.64575 10.8898 9.58228C10.9826 9.5188 11.029 9.41382 11.029 9.26733C11.029 9.13062 10.9785 9.03296 10.8776 8.97437C10.7783 8.91414 10.6205 8.88403 10.404 8.88403H10.006V9.67749ZM10.006 10.2781V11.2083H10.4992C10.7075 11.2083 10.8613 11.1684 10.9606 11.0886C11.0599 11.0089 11.1096 10.8868 11.1096 10.7224C11.1096 10.4262 10.898 10.2781 10.4748 10.2781H10.006ZM12.7086 11.8333V8.26392H13.4654V11.8333H12.7086ZM14.4639 11.8333V8.26392H15.2207V11.2083H16.6684V11.8333H14.4639ZM17.391 11.8333V8.26392H18.1478V11.2083H19.5956V11.8333H17.391Z" fill="#FF8947"/>
<path d="M25.089 15.7058C23.5267 15.7058 13.0851 15.7058 11.8439 15.7058C11.9781 15.9811 12.0533 16.2905 12.0533 16.6172V25.4117C12.0533 25.7366 12.3167 25.9999 12.6416 25.9999H25.4118C25.7366 25.9999 26 25.7366 26 25.4117V16.6172C26 16.1144 25.5914 15.7058 25.089 15.7058ZM14.493 18.7207H19.0514C19.3765 18.7207 19.6396 18.9838 19.6396 19.3089C19.6396 19.6337 19.3765 19.8972 19.0514 19.8972C18.0202 19.8972 15.4681 19.8972 14.493 19.8972C14.1682 19.8972 13.9047 19.6337 13.9047 19.3089C13.9047 18.9838 14.1682 18.7207 14.493 18.7207ZM19.08 23.0729C19.0515 23.0741 19.3293 23.0737 14.493 23.0737C14.1682 23.0737 13.9047 22.8101 13.9047 22.4854C13.9047 22.1603 14.1682 21.8972 14.493 21.8972H19.0514C19.377 21.8972 19.6396 22.1608 19.6396 22.4854C19.6396 22.8018 19.3899 23.0585 19.08 23.0729ZM24.0075 23.0737H21.7722C21.4471 23.0737 21.1839 22.8101 21.1839 22.4854C21.1839 22.1644 21.4434 21.8972 21.7722 21.8972H24.0075C24.3322 21.8972 24.5957 22.1603 24.5957 22.4854C24.5957 22.8101 24.3322 23.0737 24.0075 23.0737ZM24.0075 19.8972C23.7578 19.8972 22.0459 19.8972 21.7722 19.8972C21.4471 19.8972 21.1839 19.6337 21.1839 19.3089C21.1839 18.9838 21.4471 18.7207 21.7722 18.7207H24.0075C24.3322 18.7207 24.5957 18.9838 24.5957 19.3089C24.5957 19.6337 24.3322 19.8972 24.0075 19.8972Z" fill="white"/>
</g>
<defs>
<clipPath id="clip0">
<rect width="20" height="20" fill="white" transform="translate(6 6)"/>
</clipPath>
</defs>
</svg>
