<svg width="16" height="20" viewBox="0 0 16 20" fill="none" xmlns="http://www.w3.org/2000/svg">
<path d="M0.275553 10.7003C0.153412 9.64172 0.255196 8.61981 0.532049 7.67525C1.45218 4.53623 4.33877 2.22777 7.76279 2.18705V0.135087C7.76279 0.021089 7.90529 -0.0399815 7.99893 0.0292317L12.2209 3.13161C12.2901 3.18454 12.2901 3.29039 12.2209 3.33925L8.003 6.44163C7.90529 6.51084 7.76686 6.44977 7.76686 6.33577V4.28788C5.5154 4.32452 3.59371 5.71285 2.76723 7.67525C2.45373 8.41624 2.29495 9.23458 2.33973 10.0936C2.4008 11.2743 2.84458 12.3614 3.54486 13.2408C3.91942 13.709 3.82985 14.393 3.34536 14.7472C2.8853 15.0851 2.24202 14.9915 1.88781 14.5436C1.02061 13.4607 0.442479 12.1415 0.275553 10.7003ZM12.4652 6.75919C13.1696 7.63454 13.6133 8.72566 13.6703 9.90636C13.7151 10.7695 13.5523 11.5878 13.2428 12.3247C12.4164 14.2871 10.4947 15.6795 8.24321 15.7121V13.6642C8.24321 13.5502 8.10071 13.4892 8.00707 13.5584L3.78507 16.6607C3.71586 16.7137 3.71586 16.8195 3.78507 16.8684L8.003 19.9708C8.10071 20.04 8.23914 19.9789 8.23914 19.8649V17.8129C11.6632 17.7763 14.5538 15.4678 15.4699 12.3247C15.7467 11.3802 15.8444 10.3583 15.7264 9.29972C15.5635 7.85846 14.9854 6.53934 14.1182 5.45636C13.7599 5.00851 13.1207 4.91487 12.6606 5.25279C12.1802 5.607 12.0906 6.29099 12.4652 6.75919Z" fill="white"/>
</svg>
