<svg width="32" height="32" viewBox="0 0 32 32" fill="none" xmlns="http://www.w3.org/2000/svg">
<rect width="32" height="32" rx="6" fill="#733FCC"/>
<g clip-path="url(#clip0)">
<path d="M18.3921 11.2351C18.3921 10.5076 18.0026 9.82757 17.3751 9.46023L16.7825 9.11321C17.294 8.83569 17.6353 8.29235 17.6353 7.67772C17.6353 6.77424 16.9033 6.04224 15.9998 6.04224C15.0968 6.04224 14.3648 6.77427 14.3648 7.67772C14.3648 8.28302 14.6969 8.82929 15.2171 9.11321L14.6254 9.45976C13.9978 9.82761 13.6078 10.5076 13.6078 11.2346V12.5462H18.3921V11.2351Z" fill="white"/>
<path d="M11.2134 11.2351C11.2134 10.5076 10.8238 9.82757 10.1963 9.46024L9.60367 9.11322C10.1152 8.83569 10.4565 8.29236 10.4565 7.67773C10.4565 6.77424 9.72449 6.04224 8.821 6.04224C7.91798 6.04224 7.18598 6.77428 7.18598 7.67773C7.18598 8.28302 7.51814 8.8293 8.03833 9.11322L7.44657 9.45977C6.81908 9.82757 6.42908 10.5075 6.42908 11.2346V12.5461H11.2134V11.2351H11.2134Z" fill="white"/>
<path d="M24.5539 9.46024L23.9613 9.11322C24.4728 8.83569 24.8141 8.29236 24.8141 7.67773C24.8141 6.77424 24.0821 6.04224 23.1786 6.04224C22.2756 6.04224 21.5436 6.77428 21.5436 7.67773C21.5436 8.28302 21.8757 8.8293 22.3959 9.11322L21.8042 9.45977C21.1767 9.82757 20.7867 10.5075 20.7867 11.2346V12.5461H25.571V11.235C25.5709 10.5076 25.1814 9.82761 24.5539 9.46024Z" fill="white"/>
<path d="M6.26863 13.7227C6.12027 13.7227 6 13.8429 6 13.9913C6 14.2843 6 25.7286 6 25.6893C6 25.8377 6.12027 25.958 6.26863 25.958H25.7314C25.8797 25.958 26 25.8377 26 25.6893V13.9913C26 13.8429 25.8797 13.7227 25.7314 13.7227C25.5351 13.7227 6.13792 13.7227 6.26863 13.7227ZM22.7596 15.8403C22.7596 16.4352 23.2435 16.9191 23.8384 16.9191C24.1631 16.9191 24.4267 17.1827 24.4267 17.5074V22.1733C24.4267 22.498 24.1631 22.7615 23.8384 22.7615C23.2435 22.7615 22.7596 23.2454 22.7596 23.8403C22.7596 24.1654 22.4961 24.4285 22.1714 24.4285H9.82863C9.50392 24.4285 9.24039 24.1654 9.24039 23.8403C9.24039 23.2454 8.75647 22.7615 8.16157 22.7615C7.83686 22.7615 7.57333 22.498 7.57333 22.1733V17.5074C7.57333 17.1827 7.83686 16.9191 8.16157 16.9191C8.75647 16.9191 9.24039 16.4352 9.24039 15.8403C9.24039 15.5152 9.50392 15.2521 9.82863 15.2521H22.1714C22.4961 15.2521 22.7596 15.5152 22.7596 15.8403Z" fill="white"/>
<path d="M8.74982 18.0179V21.6626C9.52158 21.8712 10.1306 22.4802 10.3392 23.252H21.6608C21.8694 22.4802 22.4784 21.8712 23.2502 21.6626V18.0179C22.4784 17.8093 21.8694 17.2002 21.6608 16.4285H10.3392C10.1306 17.2002 9.52158 17.8092 8.74982 18.0179ZM20.1616 19.3727C20.1616 19.048 20.4251 18.7845 20.7498 18.7845C21.0749 18.7845 21.3381 19.048 21.3381 19.3727V20.3077C21.3381 20.6324 21.0749 20.8959 20.7498 20.8959C20.4251 20.8959 20.1616 20.6324 20.1616 20.3077V19.3727ZM16 17.9284C17.0541 17.9284 17.9118 18.7861 17.9118 19.8402C17.9118 20.8943 17.0541 21.752 16 21.752C14.9459 21.752 14.0882 20.8943 14.0882 19.8402C14.0882 18.7861 14.9459 17.9284 16 17.9284ZM10.662 19.3727C10.662 19.048 10.9251 18.7845 11.2502 18.7845C11.5749 18.7845 11.8384 19.048 11.8384 19.3727V20.3077C11.8384 20.6324 11.5749 20.8959 11.2502 20.8959C10.9251 20.8959 10.662 20.6324 10.662 20.3077V19.3727Z" fill="white"/>
<path d="M16 20.5756C16.4061 20.5756 16.7353 20.2464 16.7353 19.8403C16.7353 19.4342 16.4061 19.105 16 19.105C15.5939 19.105 15.2647 19.4342 15.2647 19.8403C15.2647 20.2464 15.5939 20.5756 16 20.5756Z" fill="white"/>
</g>
<defs>
<clipPath id="clip0">
<rect width="20" height="20" fill="white" transform="translate(6 6)"/>
</clipPath>
</defs>
</svg>
