<svg width="32" height="32" viewBox="0 0 32 32" fill="none" xmlns="http://www.w3.org/2000/svg">
<rect width="32" height="32" rx="6" fill="#1A9326"/>
<g clip-path="url(#clip0)">
<path d="M24.987 12.7518C24.8752 12.6166 24.709 12.5382 24.5334 12.5382H20.1756C19.5525 13.303 20.0232 12.7249 17.7545 15.5121C17.5196 15.8005 17.0778 15.8014 16.8422 15.5121C14.5355 12.6782 15.0384 13.2959 14.4211 12.5382H10.7956L10.3067 9.7783C10.257 9.49761 10.0131 9.29297 9.72773 9.29297H7.46652C7.14192 9.29297 6.87848 9.55641 6.87848 9.88101C6.87848 10.2056 7.14192 10.469 7.46652 10.469H9.23495C9.78261 13.5613 9.3544 11.28 10.9403 19.5009V19.5013V21.5955C11.3224 21.5144 11.7246 21.5116 12.1163 21.5951V20.0329H23.3146C23.5964 20.0329 23.8387 19.833 23.892 19.5562L25.1108 13.2375C25.1442 13.0654 25.0987 12.8871 24.987 12.7518Z" fill="white"/>
<path d="M14.2889 23.7666C14.3698 24.1429 14.3733 24.55 14.2889 24.9427H18.4107C18.3282 24.555 18.3289 24.1492 18.4111 23.7666H14.2889Z" fill="white"/>
<path d="M11.5299 22.7097C10.6232 22.7097 9.88495 23.4479 9.88495 24.3547C9.88495 25.2618 10.6227 26 11.5299 26C12.4417 26 13.1748 25.2568 13.1748 24.3547C13.1748 23.4481 12.4369 22.7097 11.5299 22.7097Z" fill="white"/>
<path d="M21.4287 25.9798C22.3254 25.8344 22.9345 24.9897 22.7891 24.093C22.6438 23.1964 21.799 22.5873 20.9024 22.7327C20.0057 22.878 19.3966 23.7227 19.542 24.6194C19.6874 25.5161 20.5321 26.1251 21.4287 25.9798Z" fill="white"/>
<path d="M17.2981 14.2094L20.2501 10.5834C20.3543 10.4553 20.2632 10.2636 20.0981 10.2636H19.379C19.0544 10.2636 18.791 10.0006 18.791 9.6756V6.19601C18.791 6.08777 18.7032 6 18.595 6H16.0017C15.8935 6 15.8057 6.08777 15.8057 6.19601V9.67564C15.8057 10.0006 15.5423 10.2637 15.2177 10.2637H14.4982C14.3331 10.2637 14.2419 10.4554 14.3462 10.5835L17.2981 14.2094Z" fill="white"/>
</g>
<defs>
<clipPath id="clip0">
<rect width="20" height="20" fill="white" transform="translate(6 6)"/>
</clipPath>
</defs>
</svg>
