<svg width="16" height="16" viewBox="0 0 16 16" fill="none" xmlns="http://www.w3.org/2000/svg">
<rect width="16" height="16" rx="4" fill="#FF4E4E"/>
<g clip-path="url(#clip0)">
<path d="M11.9139 6.33275L11.75 6.2435V5C11.75 4.37975 11.2453 3.875 10.625 3.875H5.375C4.75475 3.875 4.25 4.37975 4.25 5V6.2435L4.0865 6.33275C3.72463 6.52963 3.5 6.90801 3.5 7.32051V11.375C3.5 11.9953 4.00475 12.5 4.625 12.5H11.375C11.9952 12.5 12.5 11.9953 12.5 11.375V7.32051C12.5 6.90801 12.2754 6.52963 11.9139 6.33275ZM7.78137 9.63314L5 8.18076V5C5 4.79338 5.16838 4.625 5.375 4.625H10.625C10.8316 4.625 11 4.79338 11 5V8.18038L8.21975 9.63239C8.08438 9.70289 7.91563 9.70289 7.78137 9.63314Z" fill="white"/>
<path d="M7.99996 7.71875C8.51772 7.71875 8.93745 7.29902 8.93745 6.78125C8.93745 6.26348 8.51772 5.84375 7.99996 5.84375C7.4822 5.84375 7.06247 6.26348 7.06247 6.78125C7.06247 7.29902 7.4822 7.71875 7.99996 7.71875Z" fill="white"/>
<path d="M6.21872 5.93751C6.37397 5.93751 6.49997 5.81151 6.49997 5.65625C6.49997 5.501 6.37397 5.375 6.21872 5.375H5.65622C5.50097 5.375 5.37497 5.501 5.37497 5.65625C5.37497 5.81151 5.50097 5.93751 5.65622 5.93751H6.21872Z" fill="white"/>
<path d="M10.3437 8C10.499 8 10.625 7.874 10.625 7.71875C10.625 7.5635 10.499 7.4375 10.3437 7.4375H9.78122C9.62597 7.4375 9.49997 7.5635 9.49997 7.71875C9.49997 7.874 9.62597 8 9.78122 8H10.3437Z" fill="white"/>
</g>
<defs>
<clipPath id="clip0">
<rect width="9" height="9" fill="white" transform="translate(3.5 3.5)"/>
</clipPath>
</defs>
</svg>
