<svg xmlns="http://www.w3.org/2000/svg" viewBox="0 0 38 38" width="38" height="38">
	<defs>
		<linearGradient id="grd1" gradientUnits="userSpaceOnUse"  x1="-1" y1="-1" x2="39" y2="39">
			<stop offset="0" stop-color="#9862f5"  />
			<stop offset="1" stop-color="#733fcc"  />
		</linearGradient>
		<linearGradient id="grd2" gradientUnits="userSpaceOnUse"  x1="19" y1="-1" x2="19" y2="39">
			<stop offset="0" stop-color="#ffffff" stop-opacity="0.2" />
			<stop offset="1" stop-color="#ffffff" stop-opacity="0" />
		</linearGradient>
		<clipPath clipPathUnits="userSpaceOnUse" id="cp1">
			<path d="M9 10L29 10L29 30L9 30L9 10Z" />
		</clipPath>
	</defs>
	<style>
		tspan { white-space:pre }
		.shp0 { fill: url(#grd1) } 
		.shp1 { fill: none;stroke: url(#grd2) } 
		.shp2 { fill: #ffffff } 
		.shp3 { opacity: 0.4;fill: #ffffff } 
	</style>
	<g id="Layer">
		<path id="Layer" class="shp0" d="M7 -1L31 -1C35.42 -1 39 2.58 39 7L39 31C39 35.42 35.42 39 31 39L7 39C2.58 39 -1 35.42 -1 31L-1 7C-1 2.58 2.58 -1 7 -1Z" />
		<path id="Layer" class="shp1" d="M7 -0.5L31 -0.5C35.15 -0.5 38.5 2.85 38.5 7L38.5 31C38.5 35.15 35.15 38.5 31 38.5L7 38.5C2.85 38.5 -0.5 35.15 -0.5 31L-0.5 7C-0.5 2.85 2.85 -0.5 7 -0.5Z" />
	</g>
	<g id="Clip-Path" clip-path="url(#cp1)">
		<g id="Layer">
			<path id="Layer" class="shp2" d="M9.63 27.66L23.38 27.66L22.87 27.15C22.62 26.89 22.45 26.57 22.39 26.22C21.89 26.39 21.37 26.48 20.84 26.48C18.25 26.48 16.15 24.38 16.15 21.8C16.15 19.21 18.25 17.11 20.84 17.11C23.42 17.11 25.52 19.21 25.52 21.8C25.52 22.33 25.43 22.85 25.26 23.35C25.61 23.41 25.93 23.58 26.19 23.84L27.87 25.52L27.87 14.69L9.04 14.69L9.04 27.07C9.04 27.39 9.3 27.66 9.63 27.66Z" />
			<path id="Layer" fill-rule="evenodd" class="shp2" d="M27.87 13.52L9.04 13.52L9.04 10.59C9.04 10.26 9.3 10 9.63 10L27.28 10C27.61 10 27.87 10.26 27.87 10.59L27.87 13.52ZM12.55 11.76C12.55 11.43 12.29 11.17 11.97 11.17C11.64 11.17 11.38 11.43 11.38 11.76C11.38 12.08 11.64 12.34 11.97 12.34C12.29 12.34 12.55 12.08 12.55 11.76ZM14.98 11.76C14.98 11.43 14.71 11.17 14.39 11.17C14.07 11.17 13.8 11.43 13.8 11.76C13.8 12.08 14.07 12.34 14.39 12.34C14.71 12.34 14.98 12.08 14.98 11.76ZM17.32 11.76C17.32 11.43 17.06 11.17 16.73 11.17C16.41 11.17 16.15 11.43 16.15 11.76C16.15 12.08 16.41 12.34 16.73 12.34C17.06 12.34 17.32 12.08 17.32 11.76ZM25.52 11.76C25.52 11.43 25.26 11.17 24.94 11.17L23.77 11.17C23.44 11.17 23.18 11.43 23.18 11.76C23.18 12.08 23.44 12.34 23.77 12.34L24.94 12.34C25.26 12.34 25.52 12.08 25.52 11.76Z" />
			<path id="Layer" class="shp3" d="M25.36 24.66C25.13 24.44 24.76 24.44 24.53 24.66L23.7 23.83C24.11 23.25 24.35 22.56 24.35 21.8C24.35 19.86 22.78 18.28 20.84 18.28C18.89 18.28 17.32 19.86 17.32 21.8C17.32 23.74 18.89 25.31 20.84 25.31C21.59 25.31 22.29 25.07 22.87 24.66L23.7 25.49L23.7 25.49C23.47 25.72 23.47 26.09 23.7 26.32L27.04 29.66C27.5 30.11 28.24 30.11 28.7 29.66C29.15 29.2 29.15 28.46 28.7 28L25.36 24.66Z" />
		</g>
	</g>
</svg>